<?xml version="1.0" encoding="utf-8"?>
<!-- Generator: Adobe Illustrator 19.0.0, SVG Export Plug-In . SVG Version: 6.00 Build 0)  -->
<svg version="1.1" id="Layer_1" xmlns="http://www.w3.org/2000/svg" xmlns:xlink="http://www.w3.org/1999/xlink" x="0px" y="0px"
	 viewBox="0 0 24 24" style="enable-background:new 0 0 24 24;" xml:space="preserve">
<style type="text/css">
	.st0{fill:#FFFFFF;}
</style>
<g id="XMLID_1_">
	<path id="XMLID_2_" class="st0" d="M23,5.3c0,0.6-0.2,1.3-0.6,1.9c-0.4,0.6-0.9,1.1-1.5,1.5c-3.1,2.1-5,3.5-5.7,4
		c-0.1,0.1-0.3,0.2-0.5,0.4s-0.5,0.3-0.7,0.5c-0.2,0.1-0.4,0.3-0.6,0.4c-0.3,0.1-0.5,0.3-0.7,0.3c-0.2,0.1-0.4,0.1-0.6,0.1h0h0
		c-0.2,0-0.4,0-0.6-0.1c-0.2-0.1-0.5-0.2-0.7-0.3c-0.3-0.1-0.5-0.3-0.6-0.4c-0.2-0.1-0.4-0.3-0.7-0.5c-0.3-0.2-0.4-0.3-0.5-0.4
		c-0.7-0.5-1.8-1.3-3.2-2.2S3.4,8.9,3.1,8.7c-0.5-0.3-1-0.8-1.4-1.4C1.2,6.7,1,6.1,1,5.6C1,5,1.2,4.4,1.5,4C1.8,3.6,2.3,3.4,3,3.4
		H21c0.5,0,1,0.2,1.4,0.6S23,4.8,23,5.3z M23,8.9v9.7c0,0.5-0.2,1-0.6,1.4s-0.8,0.6-1.4,0.6H3c-0.5,0-1-0.2-1.4-0.6
		C1.2,19.7,1,19.2,1,18.7V8.9C1.4,9.3,1.8,9.7,2.2,10c3,2,5,3.4,6.1,4.2c0.5,0.3,0.8,0.6,1.1,0.8s0.7,0.4,1.2,0.6
		c0.5,0.2,0.9,0.3,1.4,0.3h0h0c0.4,0,0.9-0.1,1.4-0.3c0.5-0.2,0.9-0.4,1.2-0.6s0.7-0.5,1.1-0.8c1.4-1,3.4-2.4,6.1-4.2
		C22.2,9.7,22.6,9.3,23,8.9z"/>
</g>
</svg>
