<?xml version="1.0" encoding="utf-8"?>
<!-- Generator: Adobe Illustrator 19.0.0, SVG Export Plug-In . SVG Version: 6.00 Build 0)  -->
<svg version="1.1" id="Layer_1" xmlns:sketch="http://www.bohemiancoding.com/sketch/ns"
	 xmlns="http://www.w3.org/2000/svg" xmlns:xlink="http://www.w3.org/1999/xlink" x="0px" y="0px" viewBox="-383 257 22 14"
	 style="enable-background:new -383 257 22 14;" xml:space="preserve">
<style type="text/css">
	.st0{fill:#FFFFFF;}
</style>
<title>btn_google+_signin_dark_normal_web</title>
<desc>Created with Sketch.</desc>
<path id="Shape" sketch:type="MSShapeGroup" class="st0" d="M-376,263v2.4h4c-0.2,1-1.2,3-4,3c-2.4,0-4.3-2-4.3-4.4s1.9-4.4,4.3-4.4
	c1.4,0,2.3,0.6,2.8,1.1l1.9-1.8c-1.2-1.1-2.8-1.8-4.7-1.8c-3.9,0-7,3.1-7,7s3.1,7,7,7c4,0,6.7-2.8,6.7-6.8c0-0.5,0-0.8-0.1-1.2H-376
	L-376,263z"/>
<path id="Shape-Copy" sketch:type="MSShapeGroup" class="st0" d="M-361,263h-2v-2h-2v2h-2v2h2v2h2v-2h2"/>
</svg>
