<?xml version="1.0" encoding="utf-8"?>
<!-- Generator: Adobe Illustrator 19.0.0, SVG Export Plug-In . SVG Version: 6.00 Build 0)  -->
<svg version="1.1" id="Layer_1" xmlns="http://www.w3.org/2000/svg" xmlns:xlink="http://www.w3.org/1999/xlink" x="0px" y="0px"
	 viewBox="0 0 24 24" style="enable-background:new 0 0 24 24;" xml:space="preserve">
<style type="text/css">
	.st0{fill:#FFFFFF;}
</style>
<g id="XMLID_5_">
	<path id="XMLID_6_" class="st0" d="M6.8,4.6c0,0.6-0.2,1.2-0.7,1.6c-0.5,0.4-1,0.6-1.8,0.6h0C3.6,6.8,3,6.6,2.6,6.2
		c-0.4-0.4-0.7-1-0.7-1.6c0-0.6,0.2-1.2,0.7-1.6c0.5-0.4,1-0.6,1.8-0.6S5.7,2.6,6.1,3S6.8,3.9,6.8,4.6z M6.5,8.6v13H2.1v-13H6.5z
		 M22.1,14.2v7.5h-4.3v-7c0-0.9-0.2-1.6-0.5-2.2c-0.4-0.5-0.9-0.8-1.7-0.8c-0.6,0-1,0.2-1.4,0.5c-0.4,0.3-0.7,0.7-0.8,1.1
		c-0.1,0.3-0.1,0.6-0.1,1.1v7.3H8.9c0-3.5,0-6.3,0-8.5c0-2.2,0-3.5,0-3.9l0-0.6h4.3v1.9h0c0.2-0.3,0.4-0.5,0.5-0.7
		c0.2-0.2,0.4-0.4,0.7-0.7c0.3-0.2,0.7-0.4,1.1-0.6c0.5-0.1,1-0.2,1.5-0.2c1.5,0,2.7,0.5,3.6,1.5C21.6,10.8,22.1,12.3,22.1,14.2z"/>
</g>
</svg>
