<?xml version="1.0" encoding="utf-8"?>
<!-- Generator: Adobe Illustrator 19.0.0, SVG Export Plug-In . SVG Version: 6.00 Build 0)  -->
<svg version="1.1" id="StumbleUpon_Logo" xmlns="http://www.w3.org/2000/svg" xmlns:xlink="http://www.w3.org/1999/xlink" x="0px"
	 y="0px" width="24px" height="24px" viewBox="0 0 24 24" style="enable-background:new 0 0 24 24;" xml:space="preserve">
<style type="text/css">
	.Arched_x0020_Green{fill:url(#SVGID_1_);stroke:#FFFFFF;stroke-width:0.25;stroke-miterlimit:1;}
	.st0{fill:#E74011;}
</style>
<linearGradient id="SVGID_1_" gradientUnits="userSpaceOnUse" x1="-388" y1="312" x2="-387.2929" y2="311.2929">
	<stop  offset="0" style="stop-color:#1DA238"/>
	<stop  offset="0.9831" style="stop-color:#24391D"/>
</linearGradient>
<path class="st0" d="M12,0C5.4,0,0,5.4,0,12s5.4,12,12,12s12-5.4,12-12S18.6,0,12,0z M11.9,8.5c-0.5,0-0.9,0.4-0.9,0.9l0,5.3
	c0,2-1.7,3.6-3.7,3.6c-2,0-3.7-1.7-3.7-3.7c0,0,0-2.3,0-2.3h2.8v2.3c0,0.5,0.4,0.9,0.9,0.9c0.5,0,0.9-0.4,0.9-0.9V9.2
	c0.1-2,1.7-3.6,3.7-3.6c2,0,3.6,1.6,3.7,3.6v1.2l-1.7,0.5l-1.1-0.5v-1C12.7,8.9,12.4,8.5,11.9,8.5z M20.1,14.6c0,2-1.7,3.7-3.7,3.7
	c-2,0-3.7-1.6-3.7-3.7v-2.3l1.1,0.5l1.7-0.5v2.3c0,0.5,0.4,0.9,0.9,0.9c0.5,0,0.9-0.4,0.9-0.9v-2.4h2.8
	C20.1,12.3,20.1,14.6,20.1,14.6z"/>
</svg>
