<?xml version="1.0" encoding="utf-8"?>
<!-- Generator: Adobe Illustrator 19.0.0, SVG Export Plug-In . SVG Version: 6.00 Build 0)  -->
<svg version="1.1" id="Layer_1" xmlns="http://www.w3.org/2000/svg" xmlns:xlink="http://www.w3.org/1999/xlink" x="0px" y="0px"
	 viewBox="0 0 24 24" style="enable-background:new 0 0 24 24;" xml:space="preserve">
<style type="text/css">
	.st0{fill:#FFFFFF;}
</style>
<g id="XMLID_10_">
	<path id="XMLID_11_" class="st0" d="M23.4,5c-0.6,0.9-1.4,1.7-2.3,2.4c0,0.1,0,0.3,0,0.6c0,1.3-0.2,2.5-0.5,3.7s-0.9,2.4-1.7,3.6
		s-1.6,2.2-2.7,3c-1,0.9-2.3,1.6-3.7,2.1c-1.5,0.5-3,0.8-4.7,0.8c-2.6,0-5-0.7-7.2-2.1c0.3,0,0.7,0.1,1.1,0.1c2.2,0,4.1-0.7,5.8-2
		c-1,0-1.9-0.3-2.7-0.9C4,15.7,3.5,14.9,3.2,14C3.5,14,3.8,14,4.1,14c0.4,0,0.8-0.1,1.2-0.2c-1.1-0.2-2-0.8-2.7-1.6
		c-0.7-0.9-1.1-1.8-1.1-3V9.3c0.7,0.4,1.4,0.6,2.1,0.6C3,9.4,2.5,8.9,2.1,8.2C1.8,7.5,1.6,6.8,1.6,6c0-0.8,0.2-1.6,0.6-2.4
		c1.2,1.4,2.6,2.6,4.2,3.4s3.5,1.3,5.4,1.4c-0.1-0.4-0.1-0.7-0.1-1.1c0-1.3,0.5-2.4,1.4-3.3c0.9-0.9,2-1.4,3.3-1.4
		c1.3,0,2.5,0.5,3.4,1.5c1-0.2,2-0.6,3-1.1c-0.4,1.1-1,2-2,2.6C21.6,5.6,22.5,5.3,23.4,5z"/>
</g>
</svg>
